<svg version="1.1" xmlns="http://www.w3.org/2000/svg" xmlns:xlink="http://www.w3.org/1999/xlink" width="541.96874" height="361.5" viewBox="0,0,541.96874,361.5"><g transform="translate(-0.51566,-13.5)"><g data-paper-data="{&quot;isPaintingLayer&quot;:true}" fill="none" fill-rule="nonzero" stroke-linecap="round" stroke-linejoin="miter" stroke-miterlimit="10" stroke-dasharray="" stroke-dashoffset="0" style="mix-blend-mode: normal"><path d="M428.7178,52l-59.51125,72l-39.10743,-27l-85.01607,53l-96.91835,-59l-27.20515,36l-71.41353,-81" stroke="#600000" stroke-width="17.5"/><path d="M416.91324,45.19233l-55.56547,62.30769l-36.51444,-23.36539l-79.37934,45.86538l-90.49237,-51.05769l-25.40139,31.15384l-66.67859,-70.09616" stroke="#7d0000" stroke-width="17.5"/><path d="M413.41486,41.32693l-53.36817,51.92307l-35.0705,-19.47116l-76.24031,38.22116l-86.91392,-42.54808l-24.39691,25.96154l-64.04182,-58.41346" stroke="#8b0000" stroke-width="17.5"/><path d="M396.41171,36.63462l-48.38715,43.61538l-31.79725,-16.35577l-69.12452,32.10577l-78.80199,-35.74039l-22.11986,21.8077l-58.06463,-49.06731" stroke="#990000" stroke-width="17.5"/><path d="M367.50623,36.18634l-41.18177,33.65902l-27.06233,-12.62214l-58.83108,24.77678l-67.06744,-27.58169l-18.82595,16.82951l-49.41813,-37.8664" stroke="#990000" stroke-width="17.5"/><path d="M323.29783,35.64937l-30.77398,23.76782l-20.22287,-8.91294l-43.9628,17.49576l-50.1176,-19.47641l-14.0681,11.88391l-36.92875,-26.7388" stroke="#990000" stroke-width="17.5"/><path d="M13.01566,26h445.48431" stroke="#31d611" stroke-width="25"/><path d="M458.50005,45h-445.48431" stroke="#2ec610" stroke-width="25"/><path d="M458.50005,64h-445.48431" stroke="#2bb60f" stroke-width="22.5"/><path d="M31.03127,365v-315" stroke="#2ec610" stroke-width="20"/><path d="M92.03127,71v131" stroke="#2bb60f" stroke-width="20"/><path d="M155.03127,31v219" stroke="#31d611" stroke-width="20"/><path d="M215.03128,127v-77" stroke="#2ec610" stroke-width="20"/><path d="M287.03126,180v-148" stroke="#31d611" stroke-width="20"/><path d="M351.03126,226v-153" stroke="#2bb60f" stroke-width="20"/><path d="M418.03126,53v114" stroke="#2ec610" stroke-width="20"/><path d="M525.77263,214l-8.41603,72l-5.53054,-27l-12.0229,53l-13.70611,-59l-3.84733,36l-10.09924,-81" data-paper-data="{&quot;index&quot;:null}" stroke="#600000" stroke-width="17.5"/><path d="M522.40621,206.19233l-7.54728,62.30769l-4.95964,-23.36539l-10.78183,45.86538l-12.29129,-51.05769l-3.45018,31.15384l-9.05675,-70.09616" data-paper-data="{&quot;index&quot;:null}" stroke="#7d0000" stroke-width="17.5"/><path d="M523.60849,202.32693l-7.54728,51.92307l-4.95965,-19.47116l-10.78183,38.22116l-12.29129,-42.54808l-3.45019,25.96154l-9.05674,-58.41346" data-paper-data="{&quot;index&quot;:null}" stroke="#8b0000" stroke-width="17.5"/><path d="M521.20392,196.63462l-6.84287,43.61538l-4.49674,-16.35577l-9.77553,32.10577l-11.14411,-35.74039l-3.12817,21.8077l-8.21145,-49.06731" data-paper-data="{&quot;index&quot;:null}" stroke="#990000" stroke-width="17.5"/><path d="M517.11614,195.18634l-5.82389,33.65902l-3.82713,-12.62214l-8.31984,24.77678l-9.48462,-27.58169l-2.66235,16.82951l-6.98867,-37.8664" data-paper-data="{&quot;index&quot;:null}" stroke="#990000" stroke-width="17.5"/><path d="M510.86423,197.64937l-4.35203,23.76782l-2.8599,-8.91294l-6.21718,17.49576l-7.08759,-19.47641l-1.98949,11.88391l-5.22243,-26.7388" data-paper-data="{&quot;index&quot;:null}" stroke="#990000" stroke-width="17.5"/><path d="M466.98439,188h63.00001" data-paper-data="{&quot;index&quot;:null}" stroke="#31d611" stroke-width="25"/><path d="M466.98438,207h63.00001" data-paper-data="{&quot;index&quot;:null}" stroke="#2ec610" stroke-width="25"/><path d="M466.98439,226h63.00001" data-paper-data="{&quot;index&quot;:null}" stroke="#2bb60f" stroke-width="22.5"/><path d="M481.48438,212v48" data-paper-data="{&quot;index&quot;:null}" stroke="#2ec610" stroke-width="20"/><path d="M516.4844,278v-45" data-paper-data="{&quot;index&quot;:null}" stroke="#2bb60f" stroke-width="20"/></g></g></svg>