<svg version="1.1" xmlns="http://www.w3.org/2000/svg" xmlns:xlink="http://www.w3.org/1999/xlink" width="73.10845" height="73.10845" viewBox="0,0,73.10845,73.10845"><defs><radialGradient cx="240" cy="180" r="36.55422" gradientUnits="userSpaceOnUse" id="color-1"><stop offset="0" stop-color="#35ff00"/><stop offset="1" stop-color="#35ff00" stop-opacity="0"/></radialGradient></defs><g transform="translate(-203.44578,-143.44578)"><g data-paper-data="{&quot;isPaintingLayer&quot;:true}" fill-rule="nonzero" stroke-linejoin="miter" stroke-miterlimit="10" stroke-dasharray="" stroke-dashoffset="0" style="mix-blend-mode: normal"><path d="M203.44578,180c0,-20.18834 16.36588,-36.55422 36.55422,-36.55422c20.18834,0 36.55422,16.36588 36.55422,36.55422c0,20.18834 -16.36588,36.55422 -36.55422,36.55422c-20.18834,0 -36.55422,-16.36588 -36.55422,-36.55422z" fill="url(#color-1)" stroke="none" stroke-width="0" stroke-linecap="butt"/><g fill="none" stroke="#22a900" stroke-width="5" stroke-linecap="round"><path d="M227.20266,164.83655c0,0 4.37879,-7.76616 7.52913,-7.76616c2.21922,0 5.9774,6.96544 9.99892,8.54462c5.60072,2.19931 11.39064,-0.77846 11.39064,-0.77846"/><path d="M227.4114,182.7893c0,0 4.37879,-7.76616 7.52913,-7.76616c2.21921,0 5.9774,6.96544 9.99892,8.54462c5.60072,2.19931 11.39064,-0.77846 11.39064,-0.77846"/><path d="M227.20266,182.52614v-17.25814"/><path d="M256.33009,182.35785v-17.25814"/><path d="M229.76941,166.34664l23.61408,5.39317"/><path d="M240.03639,165.91518l-9.41141,-1.72581"/><path d="M237.81188,162.89501l-5.81796,-2.15727"/><path d="M228.40048,173.68135l24.46966,2.15727"/><path d="M242.94538,177.78015l12.14927,2.58872"/><path d="M244.82766,171.52408l-14.20267,-2.15727"/><path d="M251.15897,181.88229l-7.01578,-1.19782"/><path d="M248.59222,169.56189l4.96238,-0.85558"/></g><path d="M226.28103,156.5l-2.61111,47" fill="none" stroke="#26c000" stroke-width="10" stroke-linecap="round"/><path d="M237.12742,170.41748l5.21905,5.21905" fill="none" stroke="#1a8100" stroke-width="1.5" stroke-linecap="round"/><path d="M242.60314,175.55097l8.38471,-8.38471" fill="none" stroke="#1a8100" stroke-width="1.5" stroke-linecap="round"/></g></g></svg>