<svg version="1.1" xmlns="http://www.w3.org/2000/svg" xmlns:xlink="http://www.w3.org/1999/xlink" width="421.51572" height="498.58467" viewBox="0,0,421.51572,498.58467"><g transform="translate(-22.48438,-10.5)"><g data-paper-data="{&quot;isPaintingLayer&quot;:true}" fill="none" fill-rule="nonzero" stroke-linejoin="miter" stroke-miterlimit="10" stroke-dasharray="" stroke-dashoffset="0" style="mix-blend-mode: normal"><path d="M378.51567,298v-218.09249h31v218.09249z" stroke="#9a0000" stroke-width="31" stroke-linecap="butt"/><path d="M378.51567,250.99731v-139.12796h31v139.12796z" stroke="#820000" stroke-width="31" stroke-linecap="butt"/><path d="M378.51567,279.19892v-135.36775h31v135.36775z" stroke="#600000" stroke-width="31" stroke-linecap="butt"/><path d="M414.7543,298l-33.46164,72l-21.9891,-27l-47.80234,53l-54.49469,-59l-15.29675,36l-40.15399,-81" stroke="#600000" stroke-width="17.5" stroke-linecap="round"/><path d="M408.11686,291.19233l-31.24303,62.30769l-20.53112,-23.36539l-44.63296,45.86538l-50.88153,-51.05769l-14.28255,31.15384l-37.49165,-70.09616" stroke="#7d0000" stroke-width="17.5" stroke-linecap="round"/><path d="M406.14984,287.32693l-30.00754,51.92307l-19.71924,-19.47116l-42.86796,38.22116l-48.86946,-42.54808l-13.71775,25.96154l-36.00906,-58.41346" stroke="#8b0000" stroke-width="17.5" stroke-linecap="round"/><path d="M396.58941,282.63462l-27.20684,43.61538l-17.87878,-16.35577l-38.86693,32.10577l-44.30833,-35.74039l-12.43742,21.8077l-32.64825,-49.06731" stroke="#990000" stroke-width="17.5" stroke-linecap="round"/><path d="M380.33662,282.18634l-23.15544,33.65902l-15.21645,-12.62214l-33.0792,24.77678l-37.71029,-27.58169l-10.58534,16.82951l-27.78655,-37.8664" stroke="#990000" stroke-width="17.5" stroke-linecap="round"/><path d="M355.47936,281.64937l-17.30342,23.76782l-11.3708,-8.91294l-24.71915,17.49576l-28.17983,-19.47641l-7.91013,11.88391l-20.76409,-26.7388" stroke="#990000" stroke-width="17.5" stroke-linecap="round"/><path d="M181.01567,272h250.48434" stroke="#31d611" stroke-width="25" stroke-linecap="round"/><path d="M431.5001,291h-250.48434" stroke="#2ec610" stroke-width="25" stroke-linecap="round"/><path d="M431.5001,310h-250.48434" stroke="#2bb60f" stroke-width="22.5" stroke-linecap="round"/><path d="M206.5313,297.5v51" stroke="#2ec610" stroke-width="20" stroke-linecap="round"/><path d="M253.5313,383.5v-108" stroke="#31d611" stroke-width="20" stroke-linecap="round"/><path d="M306.5313,364.5v-48" stroke="#2bb60f" stroke-width="20" stroke-linecap="round"/><path d="M360.53132,296.5v-21" stroke="#31d611" stroke-width="20" stroke-linecap="round"/><path d="M409.53132,294.5v62" stroke="#2ec610" stroke-width="20" stroke-linecap="round"/><path d="M424.01566,24h-57.00001" stroke="#31d611" stroke-width="25" stroke-linecap="round"/><path d="M424.01568,43h-57.00001" stroke="#2ec610" stroke-width="25" stroke-linecap="round"/><path d="M424.01568,62h-57.00001" stroke="#2bb60f" stroke-width="22.5" stroke-linecap="round"/><path d="M92.8183,352l-10.09924,81l-3.84733,-36l-13.70611,59l-12.0229,-53l-5.53054,27l-8.41603,-72" data-paper-data="{&quot;index&quot;:null}" stroke="#600000" stroke-width="17.5" stroke-linecap="round"/><path d="M90.64954,345l-9.05675,70.09616l-3.45018,-31.15384l-12.29129,51.05769l-10.78183,-45.86538l-4.95964,23.36539l-7.54728,-62.30769" data-paper-data="{&quot;index&quot;:null}" stroke="#7d0000" stroke-width="17.5" stroke-linecap="round"/><path d="M89.44727,342l-9.05674,58.41346l-3.45019,-25.96154l-12.29129,42.54808l-10.78183,-38.22116l-4.95965,19.47116l-7.54728,-51.92307" data-paper-data="{&quot;index&quot;:null}" stroke="#8b0000" stroke-width="17.5" stroke-linecap="round"/><path d="M87.36373,337l-8.21145,49.06731l-3.12817,-21.8077l-11.14411,35.74039l-9.77553,-32.10577l-4.49674,16.35577l-6.84287,-43.61538" data-paper-data="{&quot;index&quot;:null}" stroke="#990000" stroke-width="17.5" stroke-linecap="round"/><path d="M84.95914,336.38142l-6.98867,37.8664l-2.66235,-16.82951l-9.48462,27.58169l-8.31984,-24.77678l-3.82713,12.62214l-5.82389,-33.65902" data-paper-data="{&quot;index&quot;:null}" stroke="#990000" stroke-width="17.5" stroke-linecap="round"/><path d="M81.83316,339.66871l-5.22243,26.7388l-1.98949,-11.88391l-7.08759,19.47641l-6.21718,-17.49576l-2.8599,8.91294l-4.35203,-23.76782" data-paper-data="{&quot;index&quot;:null}" stroke="#990000" stroke-width="17.5" stroke-linecap="round"/><path d="M97.9844,332h-63.00001" data-paper-data="{&quot;index&quot;:null}" stroke="#31d611" stroke-width="25" stroke-linecap="round"/><path d="M34.98438,351h63.00001" data-paper-data="{&quot;index&quot;:null}" stroke="#2ec610" stroke-width="25" stroke-linecap="round"/><path d="M97.9844,370h-63.00001" data-paper-data="{&quot;index&quot;:null}" stroke="#2bb60f" stroke-width="22.5" stroke-linecap="round"/><path d="M83.48439,356v48" data-paper-data="{&quot;index&quot;:null}" stroke="#2ec610" stroke-width="20" stroke-linecap="round"/><path d="M48.48439,422v-45" data-paper-data="{&quot;index&quot;:null}" stroke="#2bb60f" stroke-width="20" stroke-linecap="round"/><path d="M238.80386,49l-8.41603,72l-5.53053,-27l-12.02291,53l-13.70611,-59l-3.84733,36l-10.09924,-81" data-paper-data="{&quot;index&quot;:null}" stroke="#600000" stroke-width="17.5" stroke-linecap="round"/><path d="M235.43746,41.19233l-7.54728,62.30769l-4.95965,-23.36539l-10.78183,45.86538l-12.29129,-51.05769l-3.45018,31.15384l-9.05675,-70.09616" data-paper-data="{&quot;index&quot;:null}" stroke="#7d0000" stroke-width="17.5" stroke-linecap="round"/><path d="M236.63975,37.32693l-7.54728,51.92307l-4.95965,-19.47116l-10.78183,38.22116l-12.29129,-42.54808l-3.45019,25.96154l-9.05675,-58.41346" data-paper-data="{&quot;index&quot;:null}" stroke="#8b0000" stroke-width="17.5" stroke-linecap="round"/><path d="M234.23517,31.63462l-6.84287,43.61538l-4.49674,-16.35577l-9.77553,32.10577l-11.14411,-35.74039l-3.12817,21.8077l-8.21144,-49.06731" data-paper-data="{&quot;index&quot;:null}" stroke="#990000" stroke-width="17.5" stroke-linecap="round"/><path d="M230.14739,30.18634l-5.82389,33.65902l-3.82712,-12.62214l-8.31985,24.77678l-9.48462,-27.58169l-2.66235,16.82951l-6.98867,-37.8664" data-paper-data="{&quot;index&quot;:null}" stroke="#990000" stroke-width="17.5" stroke-linecap="round"/><path d="M223.89548,32.64937l-4.35203,23.76782l-2.85991,-8.91294l-6.21718,17.49576l-7.08759,-19.47641l-1.9895,11.88391l-5.22244,-26.7388" data-paper-data="{&quot;index&quot;:null}" stroke="#990000" stroke-width="17.5" stroke-linecap="round"/><path d="M243.01565,23h-63.00001" data-paper-data="{&quot;index&quot;:null}" stroke="#31d611" stroke-width="25" stroke-linecap="round"/><path d="M243.01565,42h-63.00001" data-paper-data="{&quot;index&quot;:null}" stroke="#2ec610" stroke-width="25" stroke-linecap="round"/><path d="M243.01565,61h-63.00001" data-paper-data="{&quot;index&quot;:null}" stroke="#2bb60f" stroke-width="22.5" stroke-linecap="round"/><path d="M194.51563,95v-48" data-paper-data="{&quot;index&quot;:null}" stroke="#2ec610" stroke-width="20" stroke-linecap="round"/><path d="M229.51565,113v-45" data-paper-data="{&quot;index&quot;:null}" stroke="#2bb60f" stroke-width="20" stroke-linecap="round"/><path d="M380.53128,70.4837v76" stroke="#2bb60f" stroke-width="20" stroke-linecap="round"/><path d="M411.53128,28.4837v76" stroke="#31d611" stroke-width="20" stroke-linecap="round"/></g></g></svg>