<svg version="1.1" xmlns="http://www.w3.org/2000/svg" xmlns:xlink="http://www.w3.org/1999/xlink" width="470.48439" height="246.5" viewBox="0,0,470.48439,246.5"><g transform="translate(2.48434,-116.5)"><g data-paper-data="{&quot;isPaintingLayer&quot;:true}" fill="none" fill-rule="nonzero" stroke-linecap="round" stroke-linejoin="miter" stroke-miterlimit="10" stroke-dasharray="" stroke-dashoffset="0" style="mix-blend-mode: normal"><path d="M425.7178,155l-59.51125,72l-39.10743,-27l-85.01607,53l-96.91835,-59l-27.20515,36l-71.41353,-81" stroke="#600000" stroke-width="17.5"/><path d="M413.91324,148.19233l-55.56547,62.30769l-36.51444,-23.36539l-79.37934,45.86538l-90.49237,-51.05769l-25.40139,31.15384l-66.67859,-70.09616" stroke="#7d0000" stroke-width="17.5"/><path d="M410.41486,144.32693l-53.36817,51.92307l-35.0705,-19.47116l-76.24031,38.22116l-86.91392,-42.54808l-24.39691,25.96154l-64.04182,-58.41346" stroke="#8b0000" stroke-width="17.5"/><path d="M393.41171,139.63462l-48.38715,43.61538l-31.79725,-16.35577l-69.12452,32.10577l-78.80199,-35.74039l-22.11986,21.8077l-58.06463,-49.06731" stroke="#990000" stroke-width="17.5"/><path d="M364.50623,139.18634l-41.18177,33.65902l-27.06233,-12.62214l-58.83108,24.77678l-67.06744,-27.58169l-18.82595,16.82951l-49.41813,-37.8664" stroke="#990000" stroke-width="17.5"/><path d="M320.29783,138.64937l-30.77398,23.76782l-20.22287,-8.91294l-43.9628,17.49576l-50.1176,-19.47641l-14.0681,11.88391l-36.92875,-26.7388" stroke="#990000" stroke-width="17.5"/><path d="M10.01566,129h445.48431" stroke="#31d611" stroke-width="25"/><path d="M455.50005,148h-445.48431" stroke="#2ec610" stroke-width="25"/><path d="M455.50005,167h-445.48431" stroke="#2bb60f" stroke-width="22.5"/><path d="M89.03127,305v-131" stroke="#2bb60f" stroke-width="20"/><path d="M152.03127,134v219" stroke="#31d611" stroke-width="20"/><path d="M212.03128,153v77" stroke="#2ec610" stroke-width="20"/><path d="M284.03126,283v-148" stroke="#31d611" stroke-width="20"/><path d="M348.03126,176v153" stroke="#2bb60f" stroke-width="20"/><path d="M415.03126,156v114" stroke="#2ec610" stroke-width="20"/><path d="M32.51563,132.5l0,205" stroke="#31d611" stroke-width="20"/></g></g></svg>