<svg version="1.1" xmlns="http://www.w3.org/2000/svg" xmlns:xlink="http://www.w3.org/1999/xlink" width="362.57273" height="129.75714" viewBox="0,0,362.57273,129.75714"><g transform="translate(44.73094,-69.08972)"><g data-paper-data="{&quot;isPaintingLayer&quot;:true}" fill="none" fill-rule="nonzero" stroke-width="10" stroke-linecap="round" stroke-linejoin="miter" stroke-miterlimit="10" stroke-dasharray="" stroke-dashoffset="0" style="mix-blend-mode: normal"><path d="M294.10192,94.26428v17h-7.03017z" stroke="#bfbfbf"/><path d="M310.36342,111.26428h-7.03017v-17z" data-paper-data="{&quot;index&quot;:null}" stroke="#adadad"/><path d="M255.55838,94.75977v17h-7.03017z" stroke="#bfbfbf"/><path d="M271.81988,111.75977h-7.03017v-17z" data-paper-data="{&quot;index&quot;:null}" stroke="#adadad"/><path d="M122.93075,175.34536v17h-7.03017z" stroke="#bfbfbf"/><path d="M139.19225,192.34536h-7.03017v-17z" data-paper-data="{&quot;index&quot;:null}" stroke="#adadad"/><path d="M84.38721,175.84085v17h-7.03017z" stroke="#bfbfbf"/><path d="M100.64871,192.84085h-7.03017v-17z" data-paper-data="{&quot;index&quot;:null}" stroke="#adadad"/><path d="M45.84367,176.33635v17h-7.03017z" stroke="#bfbfbf"/><path d="M62.10517,193.33635h-7.03017v-17z" data-paper-data="{&quot;index&quot;:null}" stroke="#adadad"/><path d="M7.30012,176.83184v17h-7.03017z" stroke="#bfbfbf"/><path d="M23.56162,193.83184h-7.03017v-17z" data-paper-data="{&quot;index&quot;:null}" stroke="#adadad"/><path d="M-30.2224,176.84686v17h-7.03017z" stroke="#bfbfbf"/><path d="M-13.9609,193.84686h-7.03017v-17z" data-paper-data="{&quot;index&quot;:null}" stroke="#adadad"/></g></g></svg>