<svg version="1.1" xmlns="http://www.w3.org/2000/svg" xmlns:xlink="http://www.w3.org/1999/xlink" width="470.48439" height="782.5" viewBox="0,0,470.48439,782.5"><g transform="translate(4.48433,173.5)"><g data-paper-data="{&quot;isPaintingLayer&quot;:true}" fill="none" fill-rule="nonzero" stroke-linecap="round" stroke-linejoin="miter" stroke-miterlimit="10" stroke-dasharray="" stroke-dashoffset="0" style="mix-blend-mode: normal"><path d="M423.71781,286l-59.51125,72l-39.10743,-27l-85.01607,53l-96.91835,-59l-27.20515,36l-71.41353,-81" stroke="#600000" stroke-width="17.5"/><path d="M411.91324,279.19233l-55.56547,62.30769l-36.51444,-23.36539l-79.37934,45.86538l-90.49237,-51.05769l-25.40139,31.15384l-66.67859,-70.09616" stroke="#7d0000" stroke-width="17.5"/><path d="M408.41487,275.32693l-53.36817,51.92307l-35.0705,-19.47116l-76.24031,38.22116l-86.91392,-42.54808l-24.39691,25.96154l-64.04182,-58.41346" stroke="#8b0000" stroke-width="17.5"/><path d="M391.41173,270.63462l-48.38715,43.61538l-31.79725,-16.35577l-69.12452,32.10577l-78.80199,-35.74039l-22.11986,21.8077l-58.06463,-49.06731" stroke="#990000" stroke-width="17.5"/><path d="M362.50624,270.18634l-41.18177,33.65902l-27.06233,-12.62214l-58.83108,24.77678l-67.06744,-27.58169l-18.82595,16.82951l-49.41813,-37.8664" stroke="#990000" stroke-width="17.5"/><path d="M318.29783,269.64937l-30.77398,23.76782l-20.22287,-8.91294l-43.9628,17.49576l-50.1176,-19.47641l-14.0681,11.88391l-36.92875,-26.7388" stroke="#990000" stroke-width="17.5"/><path d="M453.49998,260h-445.48431" stroke="#31d611" stroke-width="25"/><path d="M453.50006,279h-445.48431" stroke="#2ec610" stroke-width="25"/><path d="M453.50006,298h-445.48431" stroke="#2bb60f" stroke-width="22.5"/><path d="M26.03128,284v315" stroke="#2ec610" stroke-width="20"/><path d="M87.03128,305v131" stroke="#2bb60f" stroke-width="20"/><path d="M150.03128,265v219" stroke="#31d611" stroke-width="20"/><path d="M210.03129,284v77" stroke="#2ec610" stroke-width="20"/><path d="M282.03126,266v148" stroke="#31d611" stroke-width="20"/><path d="M346.03126,307v153" stroke="#2bb60f" stroke-width="20"/><path d="M413.03126,401v-114" stroke="#2ec610" stroke-width="20"/><path d="M171.8039,-135l-8.41603,72l-5.53054,-27l-12.0229,53l-13.70611,-59l-3.84733,36l-10.09924,-81" stroke="#600000" stroke-width="17.5"/><path d="M168.43748,-142.80767l-7.54728,62.30769l-4.95964,-23.36539l-10.78184,45.86538l-12.29129,-51.05769l-3.45019,31.15384l-9.05674,-70.09616" stroke="#7d0000" stroke-width="17.5"/><path d="M169.63977,-146.67307l-7.54728,51.92307l-4.95964,-19.47116l-10.78184,38.22116l-12.29129,-42.54808l-3.45019,25.96154l-9.05674,-58.41346" stroke="#8b0000" stroke-width="17.5"/><path d="M167.2352,-152.36538l-6.84287,43.61538l-4.49674,-16.35577l-9.77553,32.10577l-11.14411,-35.74039l-3.12817,21.8077l-8.21145,-49.06731" stroke="#990000" stroke-width="17.5"/><path d="M163.14741,-153.81366l-5.82389,33.65902l-3.82713,-12.62214l-8.31984,24.77678l-9.48462,-27.58169l-2.66235,16.82951l-6.98867,-37.8664" stroke="#990000" stroke-width="17.5"/><path d="M156.8955,-151.35063l-4.35203,23.76782l-2.8599,-8.91294l-6.21718,17.49576l-7.08759,-19.47641l-1.9895,11.88391l-5.22243,-26.7388" stroke="#990000" stroke-width="17.5"/><path d="M113.01566,-161h63.00001" stroke="#31d611" stroke-width="25"/><path d="M113.01567,-142h63.00001" stroke="#2ec610" stroke-width="25"/><path d="M113.01567,-123h63.00001" stroke="#2bb60f" stroke-width="22.5"/><path d="M127.51566,-137v48" stroke="#2ec610" stroke-width="20"/><path d="M165.51566,-54v-106" stroke="#31d611" stroke-width="20"/><path d="M296.84957,24l-10.09924,81l-3.84733,-36l-13.70611,59l-12.02291,-53l-5.53053,27l-8.41603,-72" data-paper-data="{&quot;index&quot;:null}" stroke="#600000" stroke-width="17.5"/><path d="M294.68082,17l-9.05675,70.09616l-3.45018,-31.15384l-12.29129,51.05769l-10.78183,-45.86538l-4.95965,23.36539l-7.54728,-62.30769" data-paper-data="{&quot;index&quot;:null}" stroke="#7d0000" stroke-width="17.5"/><path d="M293.47853,14l-9.05675,58.41346l-3.45019,-25.96154l-12.29129,42.54808l-10.78183,-38.22116l-4.95965,19.47116l-7.54728,-51.92307" data-paper-data="{&quot;index&quot;:null}" stroke="#8b0000" stroke-width="17.5"/><path d="M291.39499,9l-8.21144,49.06731l-3.12817,-21.8077l-11.14411,35.74039l-9.77553,-32.10577l-4.49674,16.35577l-6.84287,-43.61538" data-paper-data="{&quot;index&quot;:null}" stroke="#990000" stroke-width="17.5"/><path d="M288.99041,8.38142l-6.98867,37.8664l-2.66235,-16.82951l-9.48462,27.58169l-8.31985,-24.77678l-3.82712,12.62214l-5.82389,-33.65902" data-paper-data="{&quot;index&quot;:null}" stroke="#990000" stroke-width="17.5"/><path d="M285.86446,11.66871l-5.22244,26.7388l-1.9895,-11.88391l-7.08759,19.47641l-6.21718,-17.49576l-2.85991,8.91294l-4.35203,-23.76782" data-paper-data="{&quot;index&quot;:null}" stroke="#990000" stroke-width="17.5"/><path d="M239.01564,4h63.00001" data-paper-data="{&quot;index&quot;:null}" stroke="#31d611" stroke-width="25"/><path d="M239.01564,23h63.00001" data-paper-data="{&quot;index&quot;:null}" stroke="#2ec610" stroke-width="25"/><path d="M239.01564,42h63.00001" data-paper-data="{&quot;index&quot;:null}" stroke="#2bb60f" stroke-width="22.5"/><path d="M287.51567,76v-48" data-paper-data="{&quot;index&quot;:null}" stroke="#2ec610" stroke-width="20"/><path d="M252.51564,94v-45" stroke="#2bb60f" stroke-width="20"/></g></g></svg>