<svg version="1.1" xmlns="http://www.w3.org/2000/svg" xmlns:xlink="http://www.w3.org/1999/xlink" width="73.10845" height="73.10846" viewBox="0,0,73.10845,73.10846"><defs><radialGradient cx="240" cy="180" r="36.55422" gradientUnits="userSpaceOnUse" id="color-1"><stop offset="0" stop-color="#35ff00"/><stop offset="1" stop-color="#35ff00" stop-opacity="0"/></radialGradient></defs><g transform="translate(-203.44577,-143.44577)"><g data-paper-data="{&quot;isPaintingLayer&quot;:true}" fill-rule="nonzero" stroke-linejoin="miter" stroke-miterlimit="10" stroke-dasharray="" stroke-dashoffset="0" style="mix-blend-mode: normal"><path d="M203.44578,180c0,-20.18834 16.36588,-36.55423 36.55423,-36.55423c20.18834,0 36.55422,16.36588 36.55422,36.55423c0,20.18834 -16.36588,36.55423 -36.55422,36.55423c-20.18834,0 -36.55423,-16.36588 -36.55423,-36.55423z" fill="url(#color-1)" stroke="none" stroke-width="0" stroke-linecap="butt"/><g fill="none" stroke-width="5" stroke-linecap="round"><path d="M227.20266,164.83656c0,0 4.37879,-7.76616 7.52913,-7.76616c2.21922,0 5.9774,6.96544 9.99892,8.54462c5.60072,2.19931 11.39064,-0.77846 11.39064,-0.77846" stroke="#ff0000"/><path d="M227.4114,182.78931c0,0 4.37879,-7.76616 7.52913,-7.76616c2.21921,0 5.9774,6.96544 9.99892,8.54462c5.60072,2.19931 11.39064,-0.77846 11.39064,-0.77846" stroke="#ff0000"/><path d="M227.20266,165.268v17.25814" stroke="#22a900"/><path d="M256.33009,182.35786v-17.25814" stroke="#ff0000"/><path d="M253.38349,171.73982l-23.61408,-5.39317" stroke="#ff0000"/><path d="M240.0364,165.91519l-9.41141,-1.72581" stroke="#ff0000"/><path d="M237.81188,162.89502l-5.81796,-2.15727" stroke="#ff0000"/><path d="M228.40048,173.68136l24.46966,2.15727" stroke="#ff0000"/><path d="M242.94538,177.78016l12.14927,2.58872" stroke="#ff0000"/><path d="M244.82767,171.52409l-14.20267,-2.15727" stroke="#ff0000"/><path d="M251.15898,181.8823l-7.01578,-1.19782" stroke="#ff0000"/><path d="M253.5546,168.70632l-4.96238,0.85558" stroke="#ff0000"/></g><path d="M226.28104,156.5l-2.61111,47" fill="none" stroke="#ff0000" stroke-width="10" stroke-linecap="round"/></g></g></svg>