<svg version="1.1" xmlns="http://www.w3.org/2000/svg" xmlns:xlink="http://www.w3.org/1999/xlink" width="590.09009" height="391.89189" viewBox="0,0,590.09009,391.89189"><g transform="translate(142.13213,17.44745)"><g data-paper-data="{&quot;isPaintingLayer&quot;:true}" fill="#2daef1" fill-rule="nonzero" stroke="none" stroke-width="0" stroke-linecap="butt" stroke-linejoin="miter" stroke-miterlimit="10" stroke-dasharray="" stroke-dashoffset="0" style="mix-blend-mode: normal"><path d="M-142.13213,374.44444v-391.89189h495.48325c0,0 10.97019,19.95167 28.34833,48.22556c8.40897,13.68123 17.62399,30.81255 24.71386,47.07336c7.34683,16.85014 15.73703,32.87635 22.2705,49.61553c3.9886,10.21905 8.94471,20.14422 12.83241,29.44193c3.70642,8.86418 6.44174,17.15805 6.44174,24.59257c0,5.27179 -0.86857,11.12089 -2.2999,17.34149c-2.97733,12.93957 -8.38964,27.48655 -13.48453,41.78839c-5.09749,14.30914 -12.18234,28.70139 -18.01316,42.59592c-6.12702,14.60036 -11.03641,28.65114 -17.89526,41.47841c-15.50926,29.00507 -28.48243,49.73873 -28.48243,49.73873z"/></g></g></svg>