<svg version="1.1" xmlns="http://www.w3.org/2000/svg" xmlns:xlink="http://www.w3.org/1999/xlink" width="480" height="231.17123" viewBox="0,0,480,231.17123"><g transform="translate(-57.51563,-124.5)"><g data-paper-data="{&quot;isPaintingLayer&quot;:true}" fill="none" fill-rule="nonzero" stroke-linecap="round" stroke-linejoin="miter" stroke-miterlimit="10" stroke-dasharray="" stroke-dashoffset="0" style="mix-blend-mode: normal"><path d="M314.50001,245l-35,72l-23,-27l-50,53l-57,-59l-16,36l-42,-81" stroke="#600000" stroke-width="17.5"/><path d="M300.49999,237.19233l-31.38711,62.30769l-20.62582,-23.36539l-44.83874,45.86538l-51.11616,-51.05769l-14.34839,31.15384l-37.66454,-70.09616" stroke="#7d0000" stroke-width="17.5"/><path d="M305.49999,233.32693l-31.38711,51.92307l-20.62582,-19.47116l-44.83874,38.22116l-51.11616,-42.54808l-14.34839,25.96154l-37.66454,-58.41346" stroke="#8b0000" stroke-width="17.5"/><path d="M295.5,227.63462l-28.45765,43.61538l-18.70074,-16.35577l-40.65379,32.10577l-46.34532,-35.74039l-13.00921,21.8077l-34.14918,-49.06731" stroke="#990000" stroke-width="17.5"/><path d="M278.50001,226.18634l-24.21998,33.65902l-15.91599,-12.62214l-34.59998,24.77678l-39.44397,-27.58169l-11.07199,16.82951l-29.06399,-37.8664" stroke="#990000" stroke-width="17.5"/><path d="M252.5,228.64937l-18.09891,23.76782l-11.89357,-8.91294l-25.85558,17.49576l-29.47536,-19.47641l-8.27378,11.88391l-21.71869,-26.7388" stroke="#990000" stroke-width="17.5"/><path d="M332.01563,219h-262" stroke="#31d611" stroke-width="25"/><path d="M70.01564,238h262" stroke="#2ec610" stroke-width="25"/><path d="M70.01564,257h262" stroke="#2bb60f" stroke-width="22.5"/><path d="M106.01564,305v-63" stroke="#2ec610" stroke-width="20"/><path d="M158.01563,264v26" stroke="#2bb60f" stroke-width="20"/><path d="M203.01563,225v39" stroke="#31d611" stroke-width="20"/><path d="M250.01563,265v70" stroke="#2bb60f" stroke-width="20"/><path d="M294.01563,312v-71" stroke="#2ec610" stroke-width="20"/><path d="M515.32187,163l-19.37023,72l-12.72901,-27l-27.67176,53l-31.5458,-59l-8.85496,36l-23.24427,-81" stroke="#600000" stroke-width="17.5"/><path d="M507.57377,155.19233l-17.37073,62.30769l-11.41505,-23.36539l-24.81533,45.86538l-28.28948,-51.05769l-7.9409,31.15384l-20.84488,-70.09616" stroke="#7d0000" stroke-width="17.5"/><path d="M510.34095,151.32693l-17.37073,51.92307l-11.41505,-19.47116l-24.81533,38.22116l-28.28948,-42.54808l-7.9409,25.96154l-20.84488,-58.41346" stroke="#8b0000" stroke-width="17.5"/><path d="M504.8066,145.63462l-15.74946,43.61538l-10.34965,-16.35577l-22.49923,32.10577l-25.64913,-35.74039l-7.19975,21.8077l-18.89936,-49.06731" stroke="#990000" stroke-width="17.5"/><path d="M495.39821,144.18634l-13.40419,33.65902l-8.80847,-12.62214l-19.14884,24.77678l-21.82968,-27.58169l-6.12763,16.82951l-16.08503,-37.8664" stroke="#990000" stroke-width="17.5"/><path d="M481.00889,146.64937l-10.01657,23.76782l-6.58232,-8.91294l-14.30939,17.49576l-16.3127,-19.47641l-4.579,11.88391l-12.01989,-26.7388" stroke="#990000" stroke-width="17.5"/><path d="M525.01564,137h-145" stroke="#31d611" stroke-width="25"/><path d="M380.01564,156h145" stroke="#2ec610" stroke-width="25"/><path d="M380.01564,175h145" stroke="#2bb60f" stroke-width="22.5"/><path d="M399.9393,223v-63" stroke="#2ec610" stroke-width="20"/><path d="M453.62251,143v39" stroke="#31d611" stroke-width="20"/><path d="M506.01563,183v61" stroke="#2bb60f" stroke-width="20"/></g></g></svg>