<svg version="1.1" xmlns="http://www.w3.org/2000/svg" xmlns:xlink="http://www.w3.org/1999/xlink" width="407.41827" height="324.93652" viewBox="0,0,407.41827,324.93652"><g transform="translate(-137.80359,84.73532)"><g data-paper-data="{&quot;isPaintingLayer&quot;:true}" fill="none" fill-rule="nonzero" stroke-width="10" stroke-linecap="round" stroke-linejoin="miter" stroke-miterlimit="10" stroke-dasharray="" stroke-dashoffset="0" style="mix-blend-mode: normal"><path d="M318.74846,218.2012v17h-7.03017z" stroke="#bfbfbf"/><path d="M335.00996,235.2012h-7.03017v-17z" data-paper-data="{&quot;index&quot;:null}" stroke="#adadad"/><path d="M152.31213,218.2012v17h-7.03017z" stroke="#bfbfbf"/><path d="M168.57363,235.2012h-7.03017v-17z" data-paper-data="{&quot;index&quot;:null}" stroke="#adadad"/><g><path d="M223.85553,82.06006h7.03017v17z" data-paper-data="{&quot;index&quot;:null}" stroke="#bfbfbf"/><path d="M240.11703,99.06006v-17h7.03017z" data-paper-data="{&quot;index&quot;:null}" stroke="#adadad"/></g><path d="M520.0473,6.36481h-17v-7.03017z" stroke="#bfbfbf"/><path d="M503.0473,22.62631v-7.03017h17z" data-paper-data="{&quot;index&quot;:null}" stroke="#adadad"/><path d="M519.0413,45.89934h-17v-7.03017z" stroke="#bfbfbf"/><path d="M502.0413,62.16084v-7.03017h17z" data-paper-data="{&quot;index&quot;:null}" stroke="#adadad"/><path d="M519.5368,-31.68324h-17v-7.03017z" stroke="#bfbfbf"/><path d="M502.5368,-15.42174v-7.03017h17z" data-paper-data="{&quot;index&quot;:null}" stroke="#adadad"/><path d="M518.53079,-70.22678h-17v-7.03017z" stroke="#bfbfbf"/><path d="M501.53079,-53.96528v-7.03017h17z" data-paper-data="{&quot;index&quot;:null}" stroke="#adadad"/></g></g></svg>