<svg version="1.1" xmlns="http://www.w3.org/2000/svg" xmlns:xlink="http://www.w3.org/1999/xlink" width="69.22898" height="69.22898" viewBox="0,0,69.22898,69.22898"><defs><radialGradient cx="240" cy="180" r="34.61449" gradientUnits="userSpaceOnUse" id="color-1"><stop offset="0" stop-color="#fff700"/><stop offset="1" stop-color="#fff700" stop-opacity="0"/></radialGradient></defs><g transform="translate(-205.38551,-145.38551)"><g data-paper-data="{&quot;isPaintingLayer&quot;:true}" fill-rule="nonzero" stroke-linejoin="miter" stroke-miterlimit="10" stroke-dasharray="" stroke-dashoffset="0" style="mix-blend-mode: normal"><path d="M205.38551,180c0,-19.11706 15.49743,-34.61449 34.61449,-34.61449c19.11706,0 34.61449,15.49743 34.61449,34.61449c0,19.11706 -15.49743,34.61449 -34.61449,34.61449c-19.11706,0 -34.61449,-15.49743 -34.61449,-34.61449z" fill="url(#color-1)" stroke="none" stroke-width="0" stroke-linecap="butt"/><path d="M224.94605,180c0,-8.31407 6.73988,-15.05395 15.05395,-15.05395c8.31407,0 15.05395,6.73988 15.05395,15.05395c0,8.31407 -6.73988,15.05395 -15.05395,15.05395c-8.31407,0 -15.05395,-6.73988 -15.05395,-15.05395z" fill="#fff700" stroke="#e7ea00" stroke-width="5" stroke-linecap="butt"/><path d="M240,185.56133v-11.12266" fill="none" stroke="#e7ea00" stroke-width="5" stroke-linecap="round"/></g></g></svg>