<svg version="1.1" xmlns="http://www.w3.org/2000/svg" xmlns:xlink="http://www.w3.org/1999/xlink" width="390.73276" height="406.74983" viewBox="0,0,390.73276,406.74983"><g transform="translate(-35.74688,15.59008)"><g data-paper-data="{&quot;isPaintingLayer&quot;:true}" fill="none" fill-rule="nonzero" stroke-linecap="round" stroke-linejoin="miter" stroke-miterlimit="10" stroke-dasharray="" stroke-dashoffset="0" style="mix-blend-mode: normal"><path d="M408.81354,234.07508l-10.09924,81l-3.84733,-36l-13.70611,59l-12.02291,-53l-5.53053,27l-8.41603,-72" data-paper-data="{&quot;index&quot;:null}" stroke="#600000" stroke-width="17.5"/><path d="M406.64479,227.07508l-9.05675,70.09616l-3.45018,-31.15384l-12.29129,51.05769l-10.78183,-45.86538l-4.95965,23.36539l-7.54728,-62.30769" data-paper-data="{&quot;index&quot;:null}" stroke="#7d0000" stroke-width="17.5"/><path d="M405.4425,224.07508l-9.05675,58.41346l-3.45019,-25.96154l-12.29129,42.54808l-10.78183,-38.22116l-4.95965,19.47116l-7.54728,-51.92307" data-paper-data="{&quot;index&quot;:null}" stroke="#8b0000" stroke-width="17.5"/><path d="M403.35896,219.07508l-8.21144,49.06731l-3.12817,-21.8077l-11.14411,35.74039l-9.77553,-32.10577l-4.49674,16.35577l-6.84287,-43.61538" data-paper-data="{&quot;index&quot;:null}" stroke="#990000" stroke-width="17.5"/><path d="M400.95438,218.4565l-6.98867,37.8664l-2.66235,-16.82951l-9.48462,27.58169l-8.31985,-24.77678l-3.82712,12.62214l-5.82389,-33.65902" data-paper-data="{&quot;index&quot;:null}" stroke="#990000" stroke-width="17.5"/><path d="M397.82843,221.74379l-5.22244,26.7388l-1.9895,-11.88391l-7.08759,19.47641l-6.21718,-17.49576l-2.85991,8.91294l-4.35203,-23.76782" data-paper-data="{&quot;index&quot;:null}" stroke="#990000" stroke-width="17.5"/><path d="M413.97963,214.07508h-63.00001" data-paper-data="{&quot;index&quot;:null}" stroke="#31d611" stroke-width="25"/><path d="M413.97963,233.07508h-63.00001" data-paper-data="{&quot;index&quot;:null}" stroke="#2ec610" stroke-width="25"/><path d="M413.97963,252.07508h-63.00001" data-paper-data="{&quot;index&quot;:null}" stroke="#2bb60f" stroke-width="22.5"/><path d="M399.47964,238.07508v48" data-paper-data="{&quot;index&quot;:null}" stroke="#2ec610" stroke-width="20"/><path d="M364.47961,304.07508v-45" stroke="#2bb60f" stroke-width="20"/><path d="M253.15288,127.96396l-10.09924,81l-3.84733,-36l-13.70611,59l-12.02291,-53l-5.53053,27l-8.41603,-72" data-paper-data="{&quot;index&quot;:null}" stroke="#600000" stroke-width="17.5"/><path d="M250.98413,120.96396l-9.05675,70.09616l-3.45018,-31.15384l-12.29129,51.05769l-10.78183,-45.86538l-4.95965,23.36539l-7.54728,-62.30769" data-paper-data="{&quot;index&quot;:null}" stroke="#7d0000" stroke-width="17.5"/><path d="M249.78184,117.96396l-9.05675,58.41346l-3.45019,-25.96154l-12.29129,42.54808l-10.78183,-38.22116l-4.95965,19.47116l-7.54728,-51.92307" data-paper-data="{&quot;index&quot;:null}" stroke="#8b0000" stroke-width="17.5"/><path d="M247.6983,112.96396l-8.21144,49.06731l-3.12817,-21.8077l-11.14411,35.74039l-9.77553,-32.10577l-4.49674,16.35577l-6.84287,-43.61538" data-paper-data="{&quot;index&quot;:null}" stroke="#990000" stroke-width="17.5"/><path d="M245.29372,112.34538l-6.98867,37.8664l-2.66235,-16.82951l-9.48462,27.58169l-8.31985,-24.77678l-3.82712,12.62214l-5.82389,-33.65902" data-paper-data="{&quot;index&quot;:null}" stroke="#990000" stroke-width="17.5"/><path d="M242.16777,115.63267l-5.22244,26.7388l-1.9895,-11.88391l-7.08759,19.47641l-6.21718,-17.49576l-2.85991,8.91294l-4.35203,-23.76782" data-paper-data="{&quot;index&quot;:null}" stroke="#990000" stroke-width="17.5"/><path d="M258.31897,107.96396h-63.00001" data-paper-data="{&quot;index&quot;:null}" stroke="#31d611" stroke-width="25"/><path d="M195.31896,126.96396h63.00001" data-paper-data="{&quot;index&quot;:null}" stroke="#2ec610" stroke-width="25"/><path d="M195.31896,145.96396h63.00001" data-paper-data="{&quot;index&quot;:null}" stroke="#2bb60f" stroke-width="22.5"/><path d="M244.52797,133.45345v85.58559" stroke="#2ec610" stroke-width="20"/><path d="M209.64694,264.08408v-150.15015" stroke="#31d611" stroke-width="20"/><path d="M107.03511,22.90992l-8.41603,72l-5.53053,-27l-12.02291,53l-13.7061,-59l-3.84733,36l-10.09924,-81" data-paper-data="{&quot;index&quot;:null}" stroke="#600000" stroke-width="17.5"/><path d="M103.6687,15.10225l-7.54728,62.30769l-4.95965,-23.36539l-10.78183,45.86538l-12.29129,-51.05769l-3.45018,31.15384l-9.05675,-70.09616" data-paper-data="{&quot;index&quot;:null}" stroke="#7d0000" stroke-width="17.5"/><path d="M104.87099,11.23685l-7.54728,51.92307l-4.95965,-19.47116l-10.78183,38.22116l-12.29129,-42.54808l-3.45018,25.96154l-9.05675,-58.41346" data-paper-data="{&quot;index&quot;:null}" stroke="#8b0000" stroke-width="17.5"/><path d="M102.46641,5.54454l-6.84287,43.61538l-4.49675,-16.35577l-9.77553,32.10577l-11.1441,-35.74039l-3.12817,21.8077l-8.21144,-49.06731" data-paper-data="{&quot;index&quot;:null}" stroke="#990000" stroke-width="17.5"/><path d="M98.37863,4.09626l-5.82389,33.65902l-3.82713,-12.62214l-8.31984,24.77678l-9.48462,-27.58169l-2.66235,16.82951l-6.98867,-37.8664" data-paper-data="{&quot;index&quot;:null}" stroke="#990000" stroke-width="17.5"/><path d="M92.12673,6.55929l-4.35203,23.76782l-2.85991,-8.91294l-6.21718,17.49576l-7.08759,-19.47641l-1.9895,11.88391l-5.22244,-26.7388" data-paper-data="{&quot;index&quot;:null}" stroke="#990000" stroke-width="17.5"/><path d="M48.24688,-3.09008h63.00001" data-paper-data="{&quot;index&quot;:null}" stroke="#31d611" stroke-width="25"/><path d="M48.24688,15.90992h63.00001" data-paper-data="{&quot;index&quot;:null}" stroke="#2ec610" stroke-width="25"/><path d="M48.24688,34.90992h63.00001" data-paper-data="{&quot;index&quot;:null}" stroke="#2bb60f" stroke-width="22.5"/><path d="M62.74687,20.90992v48" data-paper-data="{&quot;index&quot;:null}" stroke="#2ec610" stroke-width="20"/><path d="M100.74687,103.90992v-106" data-paper-data="{&quot;index&quot;:null}" stroke="#31d611" stroke-width="20"/></g></g></svg>