<svg version="1.1" xmlns="http://www.w3.org/2000/svg" xmlns:xlink="http://www.w3.org/1999/xlink" width="456.99998" height="316.58467" viewBox="0,0,456.99998,316.58467"><g transform="translate(-23.51565,-41.5)"><g data-paper-data="{&quot;isPaintingLayer&quot;:true}" fill="none" fill-rule="nonzero" stroke-linecap="round" stroke-linejoin="miter" stroke-miterlimit="10" stroke-dasharray="" stroke-dashoffset="0" style="mix-blend-mode: normal"><path d="M93.84958,201l-10.09924,81l-3.84733,-36l-13.70611,59l-12.02291,-53l-5.53053,27l-8.41603,-72" data-paper-data="{&quot;index&quot;:null}" stroke="#600000" stroke-width="17.5"/><path d="M91.68083,194l-9.05675,70.09616l-3.45018,-31.15384l-12.29129,51.05769l-10.78183,-45.86538l-4.95965,23.36539l-7.54728,-62.30769" data-paper-data="{&quot;index&quot;:null}" stroke="#7d0000" stroke-width="17.5"/><path d="M90.47854,191l-9.05675,58.41346l-3.45019,-25.96154l-12.29129,42.54808l-10.78183,-38.22116l-4.95965,19.47116l-7.54728,-51.92307" data-paper-data="{&quot;index&quot;:null}" stroke="#8b0000" stroke-width="17.5"/><path d="M88.395,186l-8.21144,49.06731l-3.12817,-21.8077l-11.14411,35.74039l-9.77553,-32.10577l-4.49674,16.35577l-6.84287,-43.61538" data-paper-data="{&quot;index&quot;:null}" stroke="#990000" stroke-width="17.5"/><path d="M85.99042,185.38142l-6.98867,37.8664l-2.66235,-16.82951l-9.48462,27.58169l-8.31985,-24.77678l-3.82712,12.62214l-5.82389,-33.65902" data-paper-data="{&quot;index&quot;:null}" stroke="#990000" stroke-width="17.5"/><path d="M82.86447,188.66871l-5.22244,26.7388l-1.9895,-11.88391l-7.08759,19.47641l-6.21718,-17.49576l-2.85991,8.91294l-4.35203,-23.76782" data-paper-data="{&quot;index&quot;:null}" stroke="#990000" stroke-width="17.5"/><path d="M36.01565,181h63.00001" data-paper-data="{&quot;index&quot;:null}" stroke="#31d611" stroke-width="25"/><path d="M99.01566,200h-63.00001" data-paper-data="{&quot;index&quot;:null}" stroke="#2ec610" stroke-width="25"/><path d="M36.01565,219h63.00001" data-paper-data="{&quot;index&quot;:null}" stroke="#2bb60f" stroke-width="22.5"/><path d="M84.51567,253v-48" data-paper-data="{&quot;index&quot;:null}" stroke="#2ec610" stroke-width="20"/><path d="M49.51564,271v-45" data-paper-data="{&quot;index&quot;:null}" stroke="#2bb60f" stroke-width="20"/><path d="M185.01563,132h114" stroke="#ffffff" stroke-width="25"/><path d="M204.01563,116h86" stroke="#ffffff" stroke-width="25"/><path d="M215.01563,100h100" stroke="#ffffff" stroke-width="25"/><path d="M356.01563,54h112" stroke="#ffffff" stroke-width="25"/><path d="M380.01563,67h70" stroke="#ffffff" stroke-width="25"/><path d="M445.01563,82l-76,0" stroke="#ffffff" stroke-width="25"/></g></g></svg>