<svg version="1.1" xmlns="http://www.w3.org/2000/svg" xmlns:xlink="http://www.w3.org/1999/xlink" width="434.00002" height="293.99982" viewBox="0,0,434.00002,293.99982"><g transform="translate(-28.51563,-41.5)"><g data-paper-data="{&quot;isPaintingLayer&quot;:true}" fill="none" fill-rule="nonzero" stroke-linejoin="miter" stroke-miterlimit="10" stroke-dasharray="" stroke-dashoffset="0" style="mix-blend-mode: normal"><path d="M163.51563,227v-116h31v116z" stroke="#9a0000" stroke-width="31" stroke-linecap="butt"/><path d="M163.51563,202v-74h31v74z" stroke="#820000" stroke-width="31" stroke-linecap="butt"/><path d="M163.51563,217v-72h31v72z" stroke="#600000" stroke-width="31" stroke-linecap="butt"/><path d="M292.03202,225l-35.9351,72l-23.61452,-27l-51.33586,53l-58.5229,-59l-16.42748,36l-43.12214,-81" stroke="#600000" stroke-width="17.5" stroke-linecap="round"/><path d="M277.65795,217.19233l-32.22568,62.30769l-21.17687,-23.36539l-46.03674,45.86538l-52.48184,-51.05769l-14.73176,31.15384l-38.67083,-70.09616" stroke="#7d0000" stroke-width="17.5" stroke-linecap="round"/><path d="M282.79154,213.32693l-32.22568,51.92307l-21.17687,-19.47116l-46.03673,38.22116l-52.48185,-42.54808l-14.73176,25.96154l-38.67083,-58.41346" stroke="#8b0000" stroke-width="17.5" stroke-linecap="round"/><path d="M272.52441,207.63462l-29.21796,43.61538l-19.20036,-16.35577l-41.73995,32.10577l-47.58357,-35.74039l-13.35679,21.8077l-35.06158,-49.06731" stroke="#990000" stroke-width="17.5" stroke-linecap="round"/><path d="M255.0702,206.18634l-24.86708,33.65902l-16.34124,-12.62214l-35.52439,24.77678l-40.49781,-27.58169l-11.36781,16.82951l-29.8405,-37.8664" stroke="#990000" stroke-width="17.5" stroke-linecap="round"/><path d="M228.37554,208.64937l-18.58247,23.76782l-12.21132,-8.91294l-26.54637,17.49576l-30.26287,-19.47641l-8.49484,11.88391l-22.29895,-26.7388" stroke="#990000" stroke-width="17.5" stroke-linecap="round"/><path d="M310.0156,199h-268.99997" stroke="#31d611" stroke-width="25" stroke-linecap="round"/><path d="M310.01565,218h-268.99997" stroke="#2ec610" stroke-width="25" stroke-linecap="round"/><path d="M41.01568,237h268.99997" stroke="#2bb60f" stroke-width="22.5" stroke-linecap="round"/><path d="M102.92832,223v48" stroke="#2ec610" stroke-width="20" stroke-linecap="round"/><path d="M265.18225,200v106" stroke="#31d611" stroke-width="20" stroke-linecap="round"/><path d="M157.51563,245v71" stroke="#2bb60f" stroke-width="20" stroke-linecap="round"/><path d="M215.51563,224v36" stroke="#2ec610" stroke-width="20" stroke-linecap="round"/><path d="M55.6225,286v-85" stroke="#31d611" stroke-width="20" stroke-linecap="round"/><path d="M208.01565,54h-57.00001" stroke="#31d611" stroke-width="25" stroke-linecap="round"/><path d="M151.01565,73h57.00001" stroke="#2ec610" stroke-width="25" stroke-linecap="round"/><path d="M151.01565,92h57.00001" stroke="#2bb60f" stroke-width="22.5" stroke-linecap="round"/><path d="M164.51563,142v-40" stroke="#2bb60f" stroke-width="20" stroke-linecap="round"/><path d="M195.51563,79v22" stroke="#2ec610" stroke-width="20" stroke-linecap="round"/><path d="M444.84957,159l-10.09924,81l-3.84733,-36l-13.70611,59l-12.02291,-53l-5.53053,27l-8.41603,-72" data-paper-data="{&quot;index&quot;:null}" stroke="#600000" stroke-width="17.5" stroke-linecap="round"/><path d="M442.68082,152l-9.05675,70.09616l-3.45018,-31.15384l-12.29129,51.05769l-10.78183,-45.86538l-4.95965,23.36539l-7.54728,-62.30769" data-paper-data="{&quot;index&quot;:null}" stroke="#7d0000" stroke-width="17.5" stroke-linecap="round"/><path d="M441.47853,149l-9.05675,58.41346l-3.45019,-25.96154l-12.29129,42.54808l-10.78183,-38.22116l-4.95965,19.47116l-7.54728,-51.92307" data-paper-data="{&quot;index&quot;:null}" stroke="#8b0000" stroke-width="17.5" stroke-linecap="round"/><path d="M439.39499,144l-8.21144,49.06731l-3.12817,-21.8077l-11.14411,35.74039l-9.77553,-32.10577l-4.49674,16.35577l-6.84287,-43.61538" data-paper-data="{&quot;index&quot;:null}" stroke="#990000" stroke-width="17.5" stroke-linecap="round"/><path d="M436.99041,143.38142l-6.98867,37.8664l-2.66235,-16.82951l-9.48462,27.58169l-8.31985,-24.77678l-3.82712,12.62214l-5.82389,-33.65902" data-paper-data="{&quot;index&quot;:null}" stroke="#990000" stroke-width="17.5" stroke-linecap="round"/><path d="M433.86446,146.66871l-5.22244,26.7388l-1.9895,-11.88391l-7.08759,19.47641l-6.21718,-17.49576l-2.85991,8.91294l-4.35203,-23.76782" data-paper-data="{&quot;index&quot;:null}" stroke="#990000" stroke-width="17.5" stroke-linecap="round"/><path d="M387.01565,139h63.00001" data-paper-data="{&quot;index&quot;:null}" stroke="#31d611" stroke-width="25" stroke-linecap="round"/><path d="M387.01565,158h63.00001" data-paper-data="{&quot;index&quot;:null}" stroke="#2ec610" stroke-width="25" stroke-linecap="round"/><path d="M387.01565,177h63.00001" data-paper-data="{&quot;index&quot;:null}" stroke="#2bb60f" stroke-width="22.5" stroke-linecap="round"/><path d="M435.51567,211v-48" data-paper-data="{&quot;index&quot;:null}" stroke="#2ec610" stroke-width="20" stroke-linecap="round"/><path d="M400.51564,184v45" stroke="#2bb60f" stroke-width="20" stroke-linecap="round"/></g></g></svg>