<svg version="1.1" xmlns="http://www.w3.org/2000/svg" xmlns:xlink="http://www.w3.org/1999/xlink" width="539.03904" height="590.09009" viewBox="0,0,539.03904,590.09009"><g transform="translate(31.02102,148.07808)"><g data-paper-data="{&quot;isPaintingLayer&quot;:true}" fill="#2daef1" fill-rule="nonzero" stroke="none" stroke-width="0" stroke-linecap="butt" stroke-linejoin="miter" stroke-miterlimit="10" stroke-dasharray="" stroke-dashoffset="0" style="mix-blend-mode: normal"><path d="M-31.02102,-148.07808l539.03904,0v495.48325c0,0 -27.4431,10.97019 -66.33324,28.34833c-18.81824,8.40897 -42.38201,17.62399 -64.74841,24.71386c-23.17701,7.34683 -45.22073,15.73703 -68.24512,22.2705c-14.05609,3.9886 -27.70795,8.94471 -40.49675,12.83241c-12.19249,3.70642 -23.60054,6.44174 -33.82656,6.44174c-7.25124,0 -15.29655,-0.86857 -23.85285,-2.2999c-17.79811,-2.97733 -37.80717,-8.38964 -57.47905,-13.48453c-19.68192,-5.09749 -39.47816,-12.18234 -58.58979,-18.01316c-20.08249,-6.12702 -39.40904,-11.03641 -57.05268,-17.89526c-39.89586,-15.50926 -68.41458,-28.48243 -68.41458,-28.48243z"/></g></g></svg>