<svg version="1.1" xmlns="http://www.w3.org/2000/svg" xmlns:xlink="http://www.w3.org/1999/xlink" width="492.00001" height="358.58469" viewBox="0,0,492.00001,358.58469"><g transform="translate(-28.51563,-17.5)"><g data-paper-data="{&quot;isPaintingLayer&quot;:true}" fill="none" fill-rule="nonzero" stroke-linecap="round" stroke-linejoin="miter" stroke-miterlimit="10" stroke-dasharray="" stroke-dashoffset="0" style="mix-blend-mode: normal"><path d="M99.80387,225l-8.41603,72l-5.53054,-27l-12.0229,53l-13.70611,-59l-3.84733,36l-10.09924,-81" stroke="#600000" stroke-width="17.5"/><path d="M96.43745,217.19233l-7.54728,62.30769l-4.95964,-23.36539l-10.78184,45.86538l-12.29129,-51.05769l-3.45019,31.15384l-9.05674,-70.09616" stroke="#7d0000" stroke-width="17.5"/><path d="M97.63974,213.32693l-7.54728,51.92307l-4.95964,-19.47116l-10.78184,38.22116l-12.29129,-42.54808l-3.45019,25.96154l-9.05674,-58.41346" stroke="#8b0000" stroke-width="17.5"/><path d="M95.23517,207.63462l-6.84287,43.61538l-4.49674,-16.35577l-9.77553,32.10577l-11.14411,-35.74039l-3.12817,21.8077l-8.21145,-49.06731" stroke="#990000" stroke-width="17.5"/><path d="M91.14738,206.18634l-5.82389,33.65902l-3.82713,-12.62214l-8.31984,24.77678l-9.48462,-27.58169l-2.66235,16.82951l-6.98867,-37.8664" stroke="#990000" stroke-width="17.5"/><path d="M84.89547,208.64937l-4.35203,23.76782l-2.8599,-8.91294l-6.21718,17.49576l-7.08759,-19.47641l-1.9895,11.88391l-5.22243,-26.7388" stroke="#990000" stroke-width="17.5"/><path d="M104.01564,199h-63.00001" stroke="#31d611" stroke-width="25"/><path d="M41.01564,218h63.00001" stroke="#2ec610" stroke-width="25"/><path d="M41.01564,237h63.00001" stroke="#2bb60f" stroke-width="22.5"/><path d="M55.51563,223v48" stroke="#2ec610" stroke-width="20"/><path d="M93.51563,200v106" stroke="#31d611" stroke-width="20"/><path d="M229.84956,172l-10.09924,81l-3.84733,-36l-13.70611,59l-12.02291,-53l-5.53053,27l-8.41603,-72" data-paper-data="{&quot;index&quot;:null}" stroke="#600000" stroke-width="17.5"/><path d="M227.68081,165l-9.05675,70.09616l-3.45018,-31.15384l-12.29129,51.05769l-10.78183,-45.86538l-4.95965,23.36539l-7.54728,-62.30769" data-paper-data="{&quot;index&quot;:null}" stroke="#7d0000" stroke-width="17.5"/><path d="M226.47852,162l-9.05675,58.41346l-3.45019,-25.96154l-12.29129,42.54808l-10.78183,-38.22116l-4.95965,19.47116l-7.54728,-51.92307" data-paper-data="{&quot;index&quot;:null}" stroke="#8b0000" stroke-width="17.5"/><path d="M224.39498,157l-8.21144,49.06731l-3.12817,-21.8077l-11.14411,35.74039l-9.77553,-32.10577l-4.49674,16.35577l-6.84287,-43.61538" data-paper-data="{&quot;index&quot;:null}" stroke="#990000" stroke-width="17.5"/><path d="M221.9904,156.38142l-6.98867,37.8664l-2.66235,-16.82951l-9.48462,27.58169l-8.31985,-24.77678l-3.82712,12.62214l-5.82389,-33.65902" data-paper-data="{&quot;index&quot;:null}" stroke="#990000" stroke-width="17.5"/><path d="M218.86445,159.66871l-5.22244,26.7388l-1.9895,-11.88391l-7.08759,19.47641l-6.21718,-17.49576l-2.85991,8.91294l-4.35203,-23.76782" data-paper-data="{&quot;index&quot;:null}" stroke="#990000" stroke-width="17.5"/><path d="M172.01564,152h63.00001" data-paper-data="{&quot;index&quot;:null}" stroke="#31d611" stroke-width="25"/><path d="M172.01564,171h63.00001" data-paper-data="{&quot;index&quot;:null}" stroke="#2ec610" stroke-width="25"/><path d="M172.01564,190h63.00001" data-paper-data="{&quot;index&quot;:null}" stroke="#2bb60f" stroke-width="22.5"/><path d="M220.51566,176v48" data-paper-data="{&quot;index&quot;:null}" stroke="#2ec610" stroke-width="20"/><path d="M185.51563,197v45" stroke="#2bb60f" stroke-width="20"/><path d="M374.84956,107l-10.09924,81l-3.84733,-36l-13.7061,59l-12.02291,-53l-5.53053,27l-8.41603,-72" data-paper-data="{&quot;index&quot;:null}" stroke="#600000" stroke-width="17.5"/><path d="M372.68081,100l-9.05675,70.09616l-3.45018,-31.15384l-12.29129,51.05769l-10.78183,-45.86538l-4.95965,23.36539l-7.54728,-62.30769" data-paper-data="{&quot;index&quot;:null}" stroke="#7d0000" stroke-width="17.5"/><path d="M371.47852,97l-9.05675,58.41346l-3.45018,-25.96154l-12.29129,42.54808l-10.78183,-38.22116l-4.95965,19.47116l-7.54728,-51.92307" data-paper-data="{&quot;index&quot;:null}" stroke="#8b0000" stroke-width="17.5"/><path d="M369.39498,92l-8.21144,49.06731l-3.12817,-21.8077l-11.1441,35.74039l-9.77553,-32.10577l-4.49675,16.35577l-6.84287,-43.61538" data-paper-data="{&quot;index&quot;:null}" stroke="#990000" stroke-width="17.5"/><path d="M366.9904,91.38142l-6.98867,37.8664l-2.66235,-16.82951l-9.48462,27.58169l-8.31984,-24.77678l-3.82713,12.62214l-5.82389,-33.65902" data-paper-data="{&quot;index&quot;:null}" stroke="#990000" stroke-width="17.5"/><path d="M363.86445,94.66871l-5.22244,26.7388l-1.9895,-11.88391l-7.08759,19.47641l-6.21718,-17.49576l-2.85991,8.91294l-4.35203,-23.76782" data-paper-data="{&quot;index&quot;:null}" stroke="#990000" stroke-width="17.5"/><path d="M317.01564,87h63.00001" data-paper-data="{&quot;index&quot;:null}" stroke="#31d611" stroke-width="25"/><path d="M317.01564,106h63.00001" data-paper-data="{&quot;index&quot;:null}" stroke="#2ec610" stroke-width="25"/><path d="M380.01565,125h-63.00001" data-paper-data="{&quot;index&quot;:null}" stroke="#2bb60f" stroke-width="22.5"/><path d="M365.51566,111v48" data-paper-data="{&quot;index&quot;:null}" stroke="#2ec610" stroke-width="20"/><path d="M327.51566,194v-106" data-paper-data="{&quot;index&quot;:null}" stroke="#31d611" stroke-width="20"/><path d="M503.80387,56l-8.41603,72l-5.53054,-27l-12.0229,53l-13.70611,-59l-3.84733,36l-10.09924,-81" data-paper-data="{&quot;index&quot;:null}" stroke="#600000" stroke-width="17.5"/><path d="M500.43745,48.19233l-7.54728,62.30769l-4.95964,-23.36539l-10.78183,45.86538l-12.29129,-51.05769l-3.45018,31.15384l-9.05675,-70.09616" data-paper-data="{&quot;index&quot;:null}" stroke="#7d0000" stroke-width="17.5"/><path d="M501.63974,44.32693l-7.54728,51.92307l-4.95965,-19.47116l-10.78183,38.22116l-12.29129,-42.54808l-3.45019,25.96154l-9.05674,-58.41346" data-paper-data="{&quot;index&quot;:null}" stroke="#8b0000" stroke-width="17.5"/><path d="M499.23516,38.63462l-6.84287,43.61538l-4.49674,-16.35577l-9.77553,32.10577l-11.14411,-35.74039l-3.12817,21.8077l-8.21145,-49.06731" data-paper-data="{&quot;index&quot;:null}" stroke="#990000" stroke-width="17.5"/><path d="M495.14738,37.18634l-5.82389,33.65902l-3.82713,-12.62214l-8.31984,24.77678l-9.48462,-27.58169l-2.66235,16.82951l-6.98867,-37.8664" data-paper-data="{&quot;index&quot;:null}" stroke="#990000" stroke-width="17.5"/><path d="M488.89547,39.64937l-4.35203,23.76782l-2.8599,-8.91294l-6.21718,17.49576l-7.08759,-19.47641l-1.98949,11.88391l-5.22243,-26.7388" data-paper-data="{&quot;index&quot;:null}" stroke="#990000" stroke-width="17.5"/><path d="M508.01564,30h-63.00001" data-paper-data="{&quot;index&quot;:null}" stroke="#31d611" stroke-width="25"/><path d="M508.01564,49h-63.00001" data-paper-data="{&quot;index&quot;:null}" stroke="#2ec610" stroke-width="25"/><path d="M445.01563,68h63.00001" data-paper-data="{&quot;index&quot;:null}" stroke="#2bb60f" stroke-width="22.5"/><path d="M459.51562,54v48" data-paper-data="{&quot;index&quot;:null}" stroke="#2ec610" stroke-width="20"/><path d="M494.51565,75v45" data-paper-data="{&quot;index&quot;:null}" stroke="#2bb60f" stroke-width="20"/></g></g></svg>