<svg version="1.1" xmlns="http://www.w3.org/2000/svg" xmlns:xlink="http://www.w3.org/1999/xlink" width="548.17918" height="683.90241" viewBox="0,0,548.17918,683.90241"><g transform="translate(34.15703,198.67718)"><g data-paper-data="{&quot;isPaintingLayer&quot;:true}" fill="none" fill-rule="nonzero" stroke-linejoin="miter" stroke-miterlimit="10" stroke-dasharray="" stroke-dashoffset="0" style="mix-blend-mode: normal"><path d="M-2.02224,-8.67266v-116h485.57499v116z" data-paper-data="{&quot;index&quot;:null}" stroke="#9a0000" stroke-width="31" stroke-linecap="butt"/><path d="M-2.02224,-33.67266v-74h485.57499v74z" data-paper-data="{&quot;index&quot;:null}" stroke="#820000" stroke-width="31" stroke-linecap="butt"/><path d="M-2.02224,-8.16215v-82.51051h485.57499v82.51051z" data-paper-data="{&quot;index&quot;:null}" stroke="#600000" stroke-width="31" stroke-linecap="butt"/><path d="M-21.65703,-186.17717h523.17908" data-paper-data="{&quot;index&quot;:null}" stroke="#31d611" stroke-width="25" stroke-linecap="round"/><path d="M-21.65693,-167.17717h523.17908" data-paper-data="{&quot;index&quot;:null}" stroke="#2ec610" stroke-width="25" stroke-linecap="round"/><path d="M-21.65693,-148.17717h523.17908" data-paper-data="{&quot;index&quot;:null}" stroke="#2bb60f" stroke-width="22.5" stroke-linecap="round"/><path d="M5.02514,-82.12011h460.87507" data-paper-data="{&quot;index&quot;:null}" stroke="#600000" stroke-width="31" stroke-linecap="round"/><path d="M437.7268,277.22523l-59.51125,72l-39.10743,-27l-85.01607,53l-96.91835,-59l-27.20515,36l-71.41353,-81" stroke="#600000" stroke-width="17.5" stroke-linecap="round"/><path d="M425.92224,270.41756l-55.56547,62.30769l-36.51444,-23.36539l-79.37934,45.86538l-90.49237,-51.05769l-25.40139,31.15384l-66.67859,-70.09616" stroke="#7d0000" stroke-width="17.5" stroke-linecap="round"/><path d="M422.42386,266.55216l-53.36817,51.92307l-35.0705,-19.47116l-76.24031,38.22116l-86.91392,-42.54808l-24.39691,25.96154l-64.04182,-58.41346" stroke="#8b0000" stroke-width="17.5" stroke-linecap="round"/><path d="M405.42071,261.85985l-48.38715,43.61538l-31.79725,-16.35577l-69.12452,32.10577l-78.80199,-35.74039l-22.11986,21.8077l-58.06463,-49.06731" stroke="#990000" stroke-width="17.5" stroke-linecap="round"/><path d="M376.51523,261.41157l-41.18177,33.65902l-27.06233,-12.62214l-58.83108,24.77678l-67.06744,-27.58169l-18.82595,16.82951l-49.41813,-37.8664" stroke="#990000" stroke-width="17.5" stroke-linecap="round"/><path d="M332.30683,260.8746l-30.77398,23.76782l-20.22287,-8.91294l-43.9628,17.49576l-50.1176,-19.47641l-14.0681,11.88391l-36.92875,-26.7388" stroke="#990000" stroke-width="17.5" stroke-linecap="round"/><path d="M22.02466,251.22523h445.48431" stroke="#31d611" stroke-width="25" stroke-linecap="round"/><path d="M467.50905,270.22523h-445.48431" stroke="#2ec610" stroke-width="25" stroke-linecap="round"/><path d="M467.50905,289.22523h-445.48431" stroke="#2bb60f" stroke-width="22.5" stroke-linecap="round"/><path d="M101.04027,296.22523v131" stroke="#2bb60f" stroke-width="20" stroke-linecap="round"/><path d="M164.04027,256.22523v219" stroke="#31d611" stroke-width="20" stroke-linecap="round"/><path d="M224.04028,275.22523v77" stroke="#2ec610" stroke-width="20" stroke-linecap="round"/><path d="M296.04026,257.22523v148" stroke="#31d611" stroke-width="20" stroke-linecap="round"/><path d="M360.04026,298.22523v153" stroke="#2bb60f" stroke-width="20" stroke-linecap="round"/><path d="M427.04026,392.22523v-114" stroke="#2ec610" stroke-width="20" stroke-linecap="round"/><path d="M47.0906,276.0961v93.09309" stroke="#2ec610" stroke-width="20" stroke-linecap="round"/><path d="M483.55275,-112.66667v116h-485.57499v-116z" data-paper-data="{&quot;index&quot;:null}" stroke="#9a0000" stroke-width="31" stroke-linecap="butt"/><path d="M483.55275,-87.66667v74h-485.57499v-74z" data-paper-data="{&quot;index&quot;:null}" stroke="#820000" stroke-width="31" stroke-linecap="butt"/><path d="M483.55275,-113.17718v82.51051h-485.57499v-82.51051z" data-paper-data="{&quot;index&quot;:null}" stroke="#600000" stroke-width="31" stroke-linecap="butt"/><path d="M-21.65703,64.83784h523.17908" data-paper-data="{&quot;index&quot;:null}" stroke="#31d611" stroke-width="25" stroke-linecap="round"/><path d="M-21.65693,45.83784h523.17908" data-paper-data="{&quot;index&quot;:null}" stroke="#2ec610" stroke-width="25" stroke-linecap="round"/><path d="M-21.65693,26.83784h523.17908" data-paper-data="{&quot;index&quot;:null}" stroke="#2bb60f" stroke-width="22.5" stroke-linecap="round"/><path d="M16.3211,-63.24324h454.09749" stroke="#600000" stroke-width="31" stroke-linecap="round"/><path d="M5.02514,-39.21922h460.87507" stroke="#600000" stroke-width="31" stroke-linecap="round"/><path d="M16.3211,-85.76577h460.87507" stroke="#600000" stroke-width="31" stroke-linecap="round"/></g></g></svg>