<svg version="1.1" xmlns="http://www.w3.org/2000/svg" xmlns:xlink="http://www.w3.org/1999/xlink" width="74.61354" height="140.86656" viewBox="0,0,74.61354,140.86656"><g transform="translate(-201.69323,-74.75)"><g data-paper-data="{&quot;isPaintingLayer&quot;:true}" fill="none" fill-rule="nonzero" stroke-width="12.5" stroke-linejoin="miter" stroke-miterlimit="10" stroke-dasharray="" stroke-dashoffset="0" style="mix-blend-mode: normal"><path d="M242.34257,205.93944c-15.30613,0 -27.7142,-12.40808 -27.7142,-27.7142c0,-15.30613 12.40808,-27.7142 27.7142,-27.7142c15.30613,0 27.7142,12.40808 27.7142,27.7142c0,15.30613 -12.40808,27.7142 -27.7142,27.7142z" data-paper-data="{&quot;index&quot;:null}" stroke="#2894ca" stroke-linecap="butt"/><path d="M214.59432,206.06184v-55.18359v-69.87825" data-paper-data="{&quot;index&quot;:null}" stroke="#2894ca" stroke-linecap="round"/><path d="M237.69148,209.36656c-15.30612,0 -27.71419,-12.40808 -27.71419,-27.7142c0,-15.30612 12.40807,-27.71419 27.71419,-27.71419c15.30612,0 27.7142,12.40807 27.7142,27.71419c0,15.30613 -12.40808,27.7142 -27.7142,27.7142z" data-paper-data="{&quot;index&quot;:null}" stroke="#2ca1dc" stroke-linecap="butt"/><path d="M207.94323,202.48896c0,0 0,-3.74643 0,-7.21044c0,-8.93505 0,-47.97316 0,-47.97316v-62.1432" data-paper-data="{&quot;index&quot;:null}" stroke="#2ca1dc" stroke-linecap="round"/></g></g></svg>